<svg width="50" height="32" viewBox="0 0 50 32" fill="none" xmlns="http://www.w3.org/2000/svg">
<path d="M20.5702 14.4839C21.6097 13.9355 22.3972 13.3548 22.9327 12.7097C23.8778 11.5484 24.3503 10.0323 24.3503 8.09678C24.3503 6.25807 23.8778 4.64516 22.9327 3.32258C21.3577 1.16129 18.6801 0.0645161 14.9315 0H0V31.2258H13.9235C15.4985 31.2258 16.9475 31.0968 18.3021 30.8064C19.6566 30.5161 20.8222 30 21.7987 29.2258C22.6807 28.5484 23.4053 27.7419 23.9723 26.7742C24.8858 25.3226 25.3583 23.6452 25.3583 21.8065C25.3583 20 24.9488 18.4839 24.1613 17.2258C23.3423 16 22.1452 15.0645 20.5702 14.4839ZM6.14269 5.45162H12.8839C14.3645 5.45162 15.593 5.61289 16.538 5.93547C17.6406 6.41934 18.2076 7.35483 18.2076 8.8387C18.2076 10.1613 17.7981 11.0645 16.9475 11.5806C16.097 12.0968 15.026 12.3548 13.6714 12.3548H6.14269V5.45162ZM16.7901 25.2581C16.034 25.6129 14.9945 25.8065 13.6714 25.8065H6.17418V17.4839H13.7974C15.1205 17.4839 16.16 17.6774 16.8846 18C18.2076 18.6129 18.8376 19.7097 18.8376 21.3549C18.8376 23.2903 18.1446 24.5807 16.7901 25.2581ZM45.204 1.48387H31.942V5.35483H45.204V1.48387ZM49.8031 16.8065C49.5196 15 48.9211 13.4193 47.9761 12.0322C46.9365 10.4839 45.6135 9.32258 44.0384 8.6129C42.4319 7.90322 40.6678 7.51612 38.6517 7.54838C35.3126 7.54838 32.6035 8.61291 30.493 10.7419C28.3824 12.871 27.3429 15.9355 27.3429 19.9355C27.3429 24.1936 28.5084 27.2903 30.8395 29.1613C33.1706 31.0645 35.8482 32 38.8723 32C42.5579 32 45.4245 30.871 47.472 28.6452C48.7951 27.2258 49.5196 25.8387 49.6771 24.4839H43.5659C43.2194 25.1613 42.8099 25.6774 42.3374 26.0645C41.4869 26.7742 40.3843 27.129 39.0298 27.129C37.7382 27.129 36.6357 26.8387 35.7222 26.2581C34.2101 25.3226 33.4226 23.7097 33.3281 21.3871H49.9921C50.0236 19.3871 49.9606 17.871 49.8031 16.8065ZM33.4856 17.4194C33.7061 15.9355 34.2416 14.7419 35.0921 13.8387C35.9427 12.9677 37.1397 12.5161 38.6517 12.5161C40.0693 12.5161 41.2348 12.9355 42.2114 13.7742C43.1564 14.6129 43.6919 15.8065 43.7864 17.4194H33.4856Z" fill="#5B70B3"/>
</svg>
