<svg width="36" height="34" viewBox="0 0 36 34" fill="none" xmlns="http://www.w3.org/2000/svg">
<path d="M4.37998 0C1.73999 0 0 1.71778 0 3.96865C0 6.16029 1.67999 7.93728 4.25998 7.93728H4.31997C7.01995 7.93728 8.69997 6.18991 8.69997 3.96865C8.66997 1.71778 7.01997 0 4.37998 0ZM0.479986 34H8.18998V11.0767H0.479986V34ZM27.1499 10.5139C22.9799 10.5139 20.1899 14.3641 20.1899 14.3641V11.047H12.4799V33.9704H20.1899V21.176C20.1899 20.4948 20.2499 19.8136 20.4299 19.3101C20.9999 17.9477 22.2599 16.5261 24.3899 16.5261C27.1799 16.5261 28.2899 18.6289 28.2899 21.7091V33.9704H35.9998V20.8205C36.0298 13.8014 32.2199 10.5139 27.1499 10.5139Z" fill="#5B70B3"/>
</svg>
